<?xml version="1.0" encoding="UTF-8"?>
<svg id="Layer_1" data-name="Layer 1" xmlns="http://www.w3.org/2000/svg" viewBox="0 0 463.43 377.89">
  <defs>
    <style>
      .cls-1 {
        stroke: #fff;
        stroke-width: 15px;
        fill: none;
      }
    </style>
  </defs>
  <path class="cls-1" d="M7.5,173.97c38.49,0,44.21-18.11,44.21-45v-51.75C51.71,30.16,80.14,7.5,120.56,7.5h8.57v26.67h-6.49c-27.19,0-38.19,16.07-38.19,44.5v49.79c0,32.8-12.14,54.22-39.14,59.67,27.68,6.23,39.14,25.47,39.14,60.36v49.28c0,30.24,15.58,45.96,38.88,45.96h5.81v26.67h-8.57c-35.02,0-68.86-18.66-68.86-69.7v-52.72c0-25.29-4.42-44.72-44.21-44.86v-29.14Z"/>
  <path class="cls-1" d="M455.93,203.91c-38.49,0-44.21,18.11-44.21,45v51.75c0,47.07-28.43,69.72-68.86,69.72h-8.58v-26.67h6.49c27.19,0,38.19-16.07,38.19-44.5v-49.79c0-32.8,12.14-54.22,39.14-59.67-27.68-6.23-39.14-25.47-39.14-60.36v-49.27c0-30.24-15.58-45.96-38.88-45.96h-5.81V7.5h8.58c35.02,0,68.86,18.66,68.86,69.7v52.72c0,25.29,4.42,44.72,44.21,44.86v29.14Z"/>
  <rect class="cls-1" x="217.01" y="51.12" width="30" height="276" transform="translate(313.59 477.12) rotate(-145)"/>
</svg>